 <svg  fill="none" xmlns="http://www.w3.org/2000/svg">
    <symbol id="memo" viewBox="0 0 75 80">
        <path fill-rule="evenodd" clip-rule="evenodd" d="M32.234 20.8418L30.6195 22.0813L30.5063 22.1848C29.4932 23.1207 28.6867 24.1965 28.0834 25.4088C27.64 26.2949 27.2643 27.5445 27.0135 29.1752H15.625L29.3191 40.9131C27.6107 42.8006 26.7273 45.099 26.7273 47.8338C26.7273 48.3403 26.7554 48.831 26.8115 49.3059L8.3334 33.342V70.842H66.6666V33.342L47.3814 50.0033C47.5006 49.3434 47.5603 48.6532 47.5605 47.9326C47.5605 45.3066 46.7729 43.0947 45.2689 41.2664L59.375 29.1752H51.4391C54.2598 27.0373 56.2459 24.9979 57.4781 23.1271C57.9555 22.4028 58.3688 21.6382 58.7133 20.842H75V79.1752H0V20.842L32.234 20.8418ZM37.7559 58.319L37.5 58.5397L37.2602 58.3326C37.4271 58.3313 37.5923 58.3268 37.7559 58.319ZM37.5172 41.6666C39.3201 41.6666 40.8097 42.2604 41.9861 43.4479C43.1624 44.635 43.7506 46.1301 43.7506 47.9332C43.7506 49.7142 43.1624 51.1984 41.9861 52.3857C40.8098 53.5731 39.3202 54.1667 37.5172 54.1666C35.6702 54.1666 34.164 53.573 32.9986 52.3857C31.8333 51.1982 31.2506 49.6811 31.2506 47.8342C31.2506 46.0752 31.8443 44.6076 33.0318 43.4313C34.2189 42.2548 35.7141 41.6666 37.5172 41.6666ZM39.4539 0C45.1023 0 49.4007 1.3903 52.3488 4.1709C54.95 6.66829 56.2506 9.91244 56.2506 13.9033C56.2506 16.6064 55.6189 18.9172 54.3555 20.8355C53.25 22.5139 51.3857 24.3155 48.7627 26.2402L47.5922 27.0727C45.1148 28.7977 43.5912 30.1172 43.0213 31.0313C42.4514 31.9453 42.1665 33.5738 42.1666 35.9166V37.5H31.2043V34.1016C31.2043 30.8316 31.5263 28.553 32.1703 27.2656C32.5421 26.5191 33.0376 25.8562 33.6568 25.2768L34.3484 24.6777C34.6821 24.4046 35.0199 24.1366 35.3617 23.8738L39.3482 20.9078C41.0321 19.6238 42.176 18.6149 42.7799 17.8811C43.585 16.9027 43.9875 15.757 43.9875 14.4439C43.9875 12.7962 43.4239 11.4895 42.2967 10.524C41.1695 9.55853 39.6397 9.07578 37.7074 9.07578C34.5363 9.07578 30.7087 10.4017 26.2246 13.0535L22.9174 4.47988C28.4171 1.49329 33.9293 0 39.4539 0Z" fill="white"/>
    </symbol>

    <symbol id="level" viewBox="0 0 79 79" fill="none">
        <path d="M13.1663 21.9449L39.5 35.1112L65.8337 21.9449L39.5 8.77862L13.1663 21.9449ZM41.6462 0.510193L76.727 18.3988C78.86 19.4872 79.6281 21.9537 78.4431 23.9155C78.0299 24.5894 77.4372 25.1349 76.7314 25.491L41.6462 43.3796C40.9802 43.7139 40.2452 43.888 39.5 43.888C38.7548 43.888 38.0198 43.7139 37.3538 43.3796L2.27298 25.491C0.139959 24.4026 -0.628105 21.9361 0.556909 19.9743C0.970116 19.3004 1.56281 18.7549 2.2686 18.3988L37.3538 0.510193C38.688 -0.170064 40.312 -0.170064 41.6462 0.510193ZM41.6462 60.9259C40.9822 61.267 40.2465 61.445 39.5 61.445C38.7535 61.445 38.0178 61.267 37.3538 60.9259L2.27298 42.7257C0.139959 41.6197 -0.628105 39.1093 0.556909 37.1168C0.971662 36.4376 1.56333 35.8838 2.2686 35.5149C2.78052 35.2495 3.34875 35.1109 3.92542 35.1109C4.50209 35.1109 5.07032 35.2495 5.58225 35.5149L37.3582 51.9947C38.688 52.6882 40.312 52.6882 41.6462 51.9947L73.4178 35.5149C73.9291 35.2502 74.4966 35.112 75.0724 35.112C75.6482 35.112 76.2157 35.2502 76.727 35.5149C78.86 36.6209 79.6281 39.1313 78.4431 41.1238C78.0283 41.8031 77.4367 42.3568 76.7314 42.7257L41.6462 60.9259ZM41.6462 78.4809C40.9822 78.8221 40.2465 79 39.5 79C38.7535 79 38.0178 78.8221 37.3538 78.4809L2.27298 60.2807C0.139959 59.1748 -0.628105 56.6644 0.556909 54.6719C0.971662 53.9926 1.56333 53.4389 2.2686 53.07C2.78052 52.8045 3.34875 52.666 3.92542 52.666C4.50209 52.666 5.07032 52.8045 5.58225 53.07L37.3582 69.5498C38.688 70.2432 40.312 70.2432 41.6462 69.5498L73.4178 53.07C73.9291 52.8053 74.4966 52.6671 75.0724 52.6671C75.6482 52.6671 76.2157 52.8053 76.727 53.07C78.86 54.176 79.6281 56.6863 78.4431 58.6788C78.0283 59.3581 77.4367 59.9118 76.7314 60.2807L41.6462 78.4809Z" fill="white"/>
    </symbol>

    <symbol id="rank" viewBox="0 0 90 90" fill="none">
        <path fill-rule="evenodd" clip-rule="evenodd" d="M44.7917 7.43333C44.5528 7.85 44.2764 8.34167 43.9625 8.90833L43.5542 9.64167L43.4583 9.80833C43.1333 10.4083 42.5917 11.4 41.6875 12.0875C40.7667 12.7875 39.6542 13.0292 39.0083 13.1708L38.825 13.2083L38.0333 13.3875C37.3 13.5542 36.7042 13.6875 36.2 13.8167C36.5292 14.2208 36.9583 14.7292 37.5167 15.3833L38.0583 16.0167L38.1833 16.1583C38.6333 16.6792 39.3583 17.5125 39.6958 18.5958C40.0292 19.6625 39.9125 20.7625 39.8417 21.4542L39.8208 21.65L39.7375 22.4958L39.5625 24.4125C40 24.2208 40.4917 23.9958 41.0792 23.725L41.825 23.3833L41.9917 23.3C42.5917 23.0208 43.6292 22.5292 44.7917 22.5292C45.9542 22.5292 46.9917 23.0208 47.5917 23.3042L47.7583 23.3833L48.5042 23.725C49.0847 23.9972 49.5903 24.2264 50.0208 24.4125L49.8458 22.4958L49.7625 21.65L49.7417 21.4542C49.6708 20.7583 49.5542 19.6625 49.8875 18.5958C50.2208 17.5125 50.95 16.6792 51.4 16.1583L51.525 16.0167L52.0667 15.3833C52.625 14.7292 53.0542 14.2208 53.3833 13.8167C52.8792 13.6917 52.2833 13.5542 51.55 13.3875L50.7583 13.2083L50.575 13.1667C49.9292 13.0292 48.8167 12.7875 47.8958 12.0833C46.9917 11.4 46.45 10.4083 46.125 9.8125L46.0292 9.64167L45.6208 8.90833C45.3097 8.34167 45.0333 7.85 44.7917 7.43333ZM40.6833 2.29167C41.4 1.35417 42.7 0 44.7917 0C46.8833 0 48.1833 1.35417 48.9 2.29167C49.5875 3.18333 50.275 4.42083 50.9833 5.69167L51.0792 5.8625L51.4875 6.6L51.725 7.01667L52.1375 7.1125L52.9292 7.29167L53.1292 7.33333C54.4917 7.64583 55.85 7.95 56.8917 8.3625C58.0417 8.81667 59.6 9.69583 60.2042 11.6333C60.7958 13.5292 60.05 15.1375 59.4 16.175C58.7958 17.1333 57.8792 18.2 56.9417 19.2958L56.8167 19.4417L56.275 20.0792L55.9333 20.4833C55.9417 20.6333 55.9625 20.8083 55.9833 21.0458L56.0667 21.8917L56.0833 22.0833C56.225 23.55 56.3625 24.9667 56.3125 26.1C56.2625 27.2917 55.9792 29.0917 54.3625 30.3125C52.6958 31.5792 50.8625 31.3042 49.6958 30.9667C48.6208 30.6625 47.35 30.075 46.0708 29.4875L45.8917 29.4042L45.1417 29.0583L44.7917 28.8958L44.4375 29.0625L43.6917 29.4042L43.5083 29.4875C42.2333 30.075 40.9667 30.6625 39.8875 30.9667C38.7208 31.3 36.8875 31.5792 35.2208 30.3125C33.6083 29.0917 33.3208 27.2917 33.2708 26.1042C33.2208 24.9667 33.3542 23.55 33.5 22.0833L33.5167 21.8917L33.6 21.0458L33.6542 20.4833L33.3083 20.0792L32.7667 19.4417L32.6417 19.2958C31.7042 18.2 30.7875 17.1292 30.1833 16.1708C29.5333 15.1375 28.7875 13.5292 29.3792 11.6292C29.9792 9.7 31.5417 8.81667 32.6917 8.3625C33.7333 7.95 35.0917 7.64583 36.4542 7.3375L36.65 7.29583L37.4458 7.1125L37.8625 7.01667L38.0958 6.6L38.5042 5.8625L38.6 5.69167C39.3083 4.42083 39.9958 3.18333 40.6833 2.29167ZM40.4208 33.3333H49.1625C51.9333 33.3333 54.3208 33.3333 56.2333 33.5917C58.2833 33.8667 60.2458 34.4875 61.8375 36.0792C63.4292 37.6708 64.05 39.6333 64.325 41.6833C64.5833 43.5958 64.5833 45.9833 64.5833 48.7542V59.0292C65.2667 58.8208 65.9708 58.6875 66.6833 58.5917C68.5958 58.3333 70.9833 58.3333 73.7542 58.3333H74.1625C76.9333 58.3333 79.3208 58.3333 81.2333 58.5917C83.2833 58.8667 85.2458 59.4875 86.8375 61.0792C88.4292 62.6708 89.05 64.6333 89.325 66.6833C89.5833 68.5958 89.5833 70.9833 89.5833 73.7542V86.4583C89.5833 87.2871 89.2541 88.082 88.668 88.668C88.082 89.2541 87.2871 89.5833 86.4583 89.5833C85.6295 89.5833 84.8347 89.2541 84.2486 88.668C83.6626 88.082 83.3333 87.2871 83.3333 86.4583V73.9583C83.3333 70.925 83.325 68.9583 83.1333 67.5167C82.95 66.1625 82.6542 65.7375 82.4167 65.5C82.1792 65.2625 81.7542 64.9667 80.4 64.7833C78.9542 64.5917 76.9917 64.5833 73.9583 64.5833C70.925 64.5833 68.9583 64.5917 67.5167 64.7833C66.1625 64.9667 65.7375 65.2625 65.5 65.5C65.2625 65.7375 64.9667 66.1625 64.7833 67.5167C64.5917 68.9625 64.5833 70.925 64.5833 73.9583V86.4583C64.5833 87.2871 64.2541 88.082 63.668 88.668C63.082 89.2541 62.2871 89.5833 61.4583 89.5833C60.6295 89.5833 59.8347 89.2541 59.2486 88.668C58.6626 88.082 58.3333 87.2871 58.3333 86.4583V48.9583C58.3333 45.925 58.325 43.9583 58.1333 42.5167C57.95 41.1625 57.6542 40.7375 57.4167 40.5C57.1792 40.2625 56.7542 39.9667 55.4 39.7833C53.9542 39.5917 51.9917 39.5833 48.9583 39.5833H40.625C37.5917 39.5833 35.625 39.5917 34.1833 39.7833C32.8292 39.9667 32.4042 40.2625 32.1667 40.5C31.9292 40.7375 31.6333 41.1625 31.45 42.5167C31.2583 43.9625 31.25 45.925 31.25 48.9583V86.4583C31.25 87.2871 30.9208 88.082 30.3347 88.668C29.7487 89.2541 28.9538 89.5833 28.125 89.5833C27.2962 89.5833 26.5013 89.2541 25.9153 88.668C25.3292 88.082 25 87.2871 25 86.4583C25 83.425 24.9917 81.4583 24.8 80.0167C24.6167 78.6625 24.3208 78.2375 24.0833 78C23.8458 77.7625 23.4208 77.4667 22.0667 77.2833C20.6208 77.0917 18.6583 77.0833 15.625 77.0833C12.5917 77.0833 10.625 77.0917 9.18333 77.2833C7.82917 77.4667 7.40417 77.7625 7.16667 78C6.92917 78.2375 6.63333 78.6625 6.45 80.0167C6.25833 81.4625 6.25 83.425 6.25 86.4583C6.25 87.2871 5.92076 88.082 5.33471 88.668C4.74866 89.2541 3.9538 89.5833 3.125 89.5833C2.2962 89.5833 1.50134 89.2541 0.915291 88.668C0.32924 88.082 0 87.2871 0 86.4583V86.25C0 83.4833 1.5522e-07 81.0958 0.258333 79.1833C0.533333 77.1333 1.15417 75.1708 2.74583 73.5792C4.3375 71.9875 6.30417 71.3667 8.35 71.0917C10.2625 70.8333 12.65 70.8333 15.4208 70.8333H15.8292C18.6 70.8333 20.9875 70.8333 22.9 71.0917C23.6139 71.1833 24.3139 71.3292 25 71.5292V48.7542C25 45.9833 25 43.5958 25.2583 41.6833C25.5333 39.6333 26.1542 37.6708 27.7458 36.0792C29.3375 34.4875 31.3042 33.8667 33.35 33.5917C35.2625 33.3333 37.65 33.3333 40.4208 33.3333Z" fill="white"/>
    </symbol>

    <symbol id="progress" viewBox="0 0 84 84" fill="none">
        <path d="M41.9959 1.38857C41.9959 0.725901 41.9959 0.389902 42.2105 0.184569C42.4205 -0.0207641 42.7472 -0.0114305 43.3959 0.0119028C52.5121 0.315043 61.2819 3.57769 68.3796 9.30665C75.4773 15.0356 80.517 22.9195 82.737 31.7665C84.957 40.6135 84.2366 49.9428 80.6846 58.3441C77.1326 66.7454 70.9422 73.762 63.0491 78.3333C55.156 82.9046 45.9892 84.7821 36.9345 83.682C27.8798 82.5819 19.4293 78.564 12.8604 72.2357C6.29155 65.9073 1.96139 57.6125 0.524478 48.6051C-0.912432 39.5976 0.622022 30.3673 4.89589 22.3092C5.19456 21.7352 5.34856 21.4506 5.63322 21.3666C5.91789 21.2826 6.20722 21.4506 6.78122 21.7819L32.6672 36.6359C33.2179 36.9532 33.4932 37.1072 33.5819 37.3545C33.6659 37.6019 33.5352 37.9332 33.2785 38.5959C32.5748 40.4027 32.4499 42.3836 32.921 44.2646C33.392 46.1455 34.4359 47.8337 35.9081 49.0956C37.3804 50.3575 39.2083 51.1309 41.1392 51.3087C43.0701 51.4865 45.0085 51.0601 46.6865 50.0883C48.3645 49.1165 49.6991 47.6474 50.5058 45.8841C51.3125 44.1208 51.5515 42.1505 51.1896 40.2455C50.8278 38.3405 49.883 36.5949 48.486 35.2502C47.0889 33.9055 45.3086 33.0281 43.3912 32.7392C42.6865 32.6319 42.3365 32.5805 42.1639 32.3845C41.9959 32.1885 41.9959 31.8712 41.9959 31.2365V1.38857Z" fill="white"/>
        <path d="M26.3625 69.0652C26.0312 69.6439 25.8632 69.9332 25.9425 70.2179C26.0312 70.5025 26.3159 70.6566 26.8899 70.9552C31.2278 73.2179 36.0186 74.4773 40.9085 74.6404C45.7983 74.8035 50.6624 73.8662 55.1415 71.8975C59.6205 69.9289 63.6002 66.9793 66.7866 63.2666C69.9729 59.5538 72.2846 55.1727 73.551 50.4469C74.8173 45.721 75.0059 40.771 74.1028 35.9625C73.1998 31.1539 71.2281 26.6097 68.3335 22.6652C65.4389 18.7208 61.6952 15.4769 57.3789 13.1732C53.0626 10.8695 48.284 9.56471 43.3959 9.35527C42.7519 9.32727 42.4252 9.3086 42.2105 9.5186C41.9959 9.72393 41.9959 10.0553 41.9959 10.7226V31.2652C41.9959 31.8999 41.9959 32.2172 42.1639 32.4132C42.3365 32.6139 42.6865 32.6652 43.3912 32.7726C44.6871 32.9709 45.9267 33.44 47.0292 34.1494C48.1318 34.8587 49.0725 35.7923 49.7901 36.8895C50.5077 37.9866 50.9862 39.2227 51.1943 40.517C51.4024 41.8114 51.3354 43.1351 50.9979 44.4019C50.6587 45.6691 50.0559 46.8505 49.2288 47.8687C48.4017 48.887 47.3689 49.7191 46.198 50.3107C45.0272 50.9023 43.7446 51.24 42.4342 51.3018C41.1239 51.3636 39.8152 51.148 38.5939 50.6692C37.9312 50.4079 37.5999 50.2819 37.3572 50.3659C37.1145 50.4499 36.9512 50.7252 36.6339 51.2759L26.3625 69.0652Z" fill="#A0A0A0"/>
    </symbol>

    <symbol id="notify" viewBox="0 0 50 50" fill="none">
        <path d="M7.63221 42.9822C5.24445 40.676 3.3399 37.9174 2.02967 34.8673C0.719445 31.8172 0.0297893 28.5367 0.000943919 25.2172C-0.0279015 21.8978 0.604641 18.6058 1.86166 15.5334C3.11869 12.4609 4.97501 9.66965 7.32233 7.32233C9.66965 4.97501 12.4609 3.11869 15.5334 1.86166C18.6058 0.604641 21.8978 -0.0279015 25.2172 0.000943919C28.5367 0.0297893 31.8172 0.719445 34.8673 2.02967C37.9174 3.3399 40.676 5.24445 42.9822 7.63221C47.5362 12.3473 50.056 18.6623 49.9991 25.2172C49.9421 31.7722 47.3129 38.0425 42.6777 42.6777C38.0425 47.3129 31.7722 49.9421 25.2172 49.9991C18.6623 50.056 12.3473 47.5362 7.63221 42.9822ZM39.4572 39.4572C43.21 35.7044 45.3183 30.6145 45.3183 25.3072C45.3183 19.9999 43.21 14.91 39.4572 11.1572C35.7044 7.40439 30.6145 5.29608 25.3072 5.29608C19.9999 5.29608 14.91 7.40439 11.1572 11.1572C7.40439 14.91 5.29608 19.9999 5.29608 25.3072C5.29608 30.6145 7.40439 35.7044 11.1572 39.4572C14.91 43.21 19.9999 45.3183 25.3072 45.3183C30.6145 45.3183 35.7044 43.21 39.4572 39.4572ZM22.8072 12.8072H27.8072V27.8072H22.8072V12.8072ZM22.8072 32.8072H27.8072V37.8072H22.8072V32.8072Z" fill="black"/>
    </symbol>

    <symbol id="list" viewBox="0 0 55 55" fill="none">
        <path fill-rule="evenodd" clip-rule="evenodd" d="M45.9 5.06H9.10001C8.49001 5.06 7.905 5.32655 7.47367 5.80102C7.04233 6.27549 6.80001 6.919 6.80001 7.59V43.01C6.80001 43.681 7.04233 44.3245 7.47367 44.799C7.905 45.2734 8.49001 45.54 9.10001 45.54H45.9C46.51 45.54 47.095 45.2734 47.5264 44.799C47.9577 44.3245 48.2 43.681 48.2 43.01V7.59C48.2 6.919 47.9577 6.27549 47.5264 5.80102C47.095 5.32655 46.51 5.06 45.9 5.06ZM9.10001 0C7.27002 0 5.51498 0.799659 4.22098 2.22306C2.92697 3.64646 2.20001 5.57701 2.20001 7.59V43.01C2.20001 45.023 2.92697 46.9535 4.22098 48.3769C5.51498 49.8003 7.27002 50.6 9.10001 50.6H45.9C47.73 50.6 49.485 49.8003 50.779 48.3769C52.0731 46.9535 52.8 45.023 52.8 43.01V7.59C52.8 5.57701 52.0731 3.64646 50.779 2.22306C49.485 0.799659 47.73 0 45.9 0H9.10001ZM13.7 12.65H18.3V17.71H13.7V12.65ZM25.2 12.65C24.59 12.65 24.005 12.9166 23.5737 13.391C23.1423 13.8655 22.9 14.509 22.9 15.18C22.9 15.851 23.1423 16.4945 23.5737 16.969C24.005 17.4434 24.59 17.71 25.2 17.71H39C39.61 17.71 40.195 17.4434 40.6264 16.969C41.0577 16.4945 41.3 15.851 41.3 15.18C41.3 14.509 41.0577 13.8655 40.6264 13.391C40.195 12.9166 39.61 12.65 39 12.65H25.2ZM18.3 22.77H13.7V27.83H18.3V22.77ZM22.9 25.3C22.9 24.629 23.1423 23.9855 23.5737 23.511C24.005 23.0366 24.59 22.77 25.2 22.77H39C39.61 22.77 40.195 23.0366 40.6264 23.511C41.0577 23.9855 41.3 24.629 41.3 25.3C41.3 25.971 41.0577 26.6145 40.6264 27.089C40.195 27.5634 39.61 27.83 39 27.83H25.2C24.59 27.83 24.005 27.5634 23.5737 27.089C23.1423 26.6145 22.9 25.971 22.9 25.3ZM18.3 32.89H13.7V37.95H18.3V32.89ZM22.9 35.42C22.9 34.749 23.1423 34.1055 23.5737 33.631C24.005 33.1566 24.59 32.89 25.2 32.89H39C39.61 32.89 40.195 33.1566 40.6264 33.631C41.0577 34.1055 41.3 34.749 41.3 35.42C41.3 36.091 41.0577 36.7345 40.6264 37.209C40.195 37.6834 39.61 37.95 39 37.95H25.2C24.59 37.95 24.005 37.6834 23.5737 37.209C23.1423 36.7345 22.9 36.091 22.9 35.42Z" fill="black"/>
    </symbol>

    <symbol id="calendar" viewBox="0 0 33 33" fill="none"> 
        <g clip-path="url(#clip0_1_299)">
            <path d="M7.40131 2.4972V4.5276H3.92063C1.999 4.5276 0.439941 5.89177 0.439941 7.5732V10.6188H32.9263V7.5732C32.9263 5.89177 31.3673 4.5276 29.4457 4.5276H25.965V2.4972C25.965 1.37413 24.928 0.466797 23.6445 0.466797C22.361 0.466797 21.3241 1.37413 21.3241 2.4972V4.5276H12.0422V2.4972C12.0422 1.37413 11.0053 0.466797 9.72177 0.466797C8.43827 0.466797 7.40131 1.37413 7.40131 2.4972ZM32.9263 12.6492H0.439941V29.9076C0.439941 31.589 1.999 32.9532 3.92063 32.9532H29.4457C31.3673 32.9532 32.9263 31.589 32.9263 29.9076V12.6492Z" fill="#89868D"/>
        </g>
        <defs>
            <clipPath id="clip0_1_299">
                <rect width="32.4864" height="32.4864" fill="white" transform="translate(0.439941 0.466797)"/>
            </clipPath>
        </defs>
    </symbol>

    <symbol id="fire" viewBox="0 0 59 75" fill="none">
        <path d="M11.9577 22.6671C11.6059 26.419 11.3591 33.059 13.5745 35.8853C13.5745 35.8853 12.5316 28.5912 21.8806 19.4397C25.6449 15.7556 26.515 10.7448 25.2006 6.98667C24.4539 4.85769 23.0901 3.09896 21.9053 1.87094C21.2141 1.14894 21.7448 -0.0420535 22.7507 0.00114321C28.8352 0.272665 38.6964 1.96351 42.8865 12.4788C44.7255 17.0947 44.8612 21.8648 43.9849 26.7152C43.4296 29.813 41.4549 36.6998 45.9597 37.5452C49.1747 38.15 50.7298 35.5952 51.4271 33.7563C51.7172 32.9911 52.723 32.7998 53.2661 33.4107C58.6965 39.5878 59.1593 46.8634 58.0362 53.1269C55.864 65.2343 43.6023 74.0465 31.4209 74.0465C16.2033 74.0465 4.08971 65.3392 0.948697 49.5786C-0.316349 43.2164 0.325431 30.6276 10.1373 21.7414C10.8654 21.075 12.0564 21.6674 11.9577 22.6671Z" fill="url(#paint0_radial_1_1669)"/>
        <path d="M36.981 45.3079C31.3716 38.0879 33.8831 29.8497 35.2593 26.5667C35.4444 26.1347 34.9507 25.7275 34.5619 25.9928C32.1491 27.6343 27.2062 31.4973 24.9044 36.9339C21.7881 44.2835 22.0102 47.8812 23.8553 52.2749C24.9661 54.9223 23.6764 55.4838 23.0284 55.5826C22.399 55.6813 21.8189 55.2617 21.3561 54.8235C20.0249 53.5451 19.0761 51.9211 18.6162 50.1336C18.5175 49.751 18.0176 49.6461 17.7893 49.9608C16.0614 52.349 15.1666 56.1811 15.1234 58.8902C14.9877 67.2642 21.9053 74.0522 30.2731 74.0522C40.8193 74.0522 48.5021 62.3891 42.4423 52.639C40.6835 49.8004 39.0297 47.9429 36.981 45.3079Z" fill="url(#paint1_radial_1_1669)"/>
        <defs>
            <radialGradient id="paint0_radial_1_1669" cx="0" cy="0" r="1" gradientUnits="userSpaceOnUse" gradientTransform="translate(28.4068 74.2383) rotate(-179.751) scale(43.5593 71.4722)">
                <stop offset="0.314" stop-color="#FF9800"/>
                <stop offset="0.662" stop-color="#FF6D00"/>
                <stop offset="0.972" stop-color="#F44336"/>
            </radialGradient>
            <radialGradient id="paint1_radial_1_1669" cx="0" cy="0" r="1" gradientUnits="userSpaceOnUse" gradientTransform="translate(30.8532 30.8916) rotate(90.5787) scale(45.5765 34.2997)">
                <stop offset="0.214" stop-color="#FFF176"/>
                <stop offset="0.328" stop-color="#FFF27D"/>
                <stop offset="0.487" stop-color="#FFF48F"/>
                <stop offset="0.672" stop-color="#FFF7AD"/>
                <stop offset="0.793" stop-color="#FFF9C4"/>
                <stop offset="0.822" stop-color="#FFF8BD" stop-opacity="0.804"/>
                <stop offset="0.863" stop-color="#FFF6AB" stop-opacity="0.529"/>
                <stop offset="0.91" stop-color="#FFF38D" stop-opacity="0.209"/>
                <stop offset="0.941" stop-color="#FFF176" stop-opacity="0"/>
            </radialGradient>
        </defs>
    </symbol>

    <symbol id="enabled-fire" viewBox="0 0 88 88" fill="none">
        <circle cx="44.14" cy="43.7772" r="43.7098" fill="#F7A054"/>
        <path d="M30.7032 32.7667C30.4338 35.6406 30.2447 40.7266 31.9416 42.8915C31.9416 42.8915 31.1428 37.3044 38.3038 30.2946C41.1872 27.4728 41.8536 23.6346 40.8468 20.756C40.2749 19.1253 39.2303 17.7782 38.3227 16.8375C37.7933 16.2845 38.1998 15.3722 38.9703 15.4053C43.6309 15.6133 51.1843 16.9084 54.3937 24.9628C55.8023 28.4985 55.9063 32.1523 55.2351 35.8675C54.8097 38.2403 53.2971 43.5154 56.7477 44.163C59.2103 44.6262 60.4015 42.6693 60.9356 41.2607C61.1577 40.6746 61.9282 40.5281 62.3442 40.996C66.5037 45.7275 66.8582 51.3004 65.9979 56.098C64.3341 65.372 54.942 72.1218 45.6114 72.1218C33.9552 72.1218 24.6766 65.4523 22.2706 53.3801C21.3017 48.5069 21.7932 38.8643 29.3088 32.0577C29.8666 31.5472 30.7788 32.001 30.7032 32.7667Z" fill="url(#paint0_radial_1_1681)"/>
        <path d="M49.8702 50.1093C45.5736 44.5789 47.4974 38.2687 48.5515 35.7541C48.6933 35.4232 48.3151 35.1112 48.0173 35.3145C46.1692 36.5718 42.383 39.5307 40.62 43.695C38.2329 49.3246 38.4031 52.0803 39.8164 55.4458C40.6672 57.4736 39.6793 57.9037 39.183 57.9793C38.7009 58.0549 38.2566 57.7335 37.9021 57.3979C36.8824 56.4187 36.1557 55.1747 35.8034 53.8056C35.7278 53.5125 35.3449 53.4322 35.17 53.6732C33.8465 55.5025 33.1611 58.4378 33.128 60.5129C33.024 66.9271 38.3227 72.1265 44.7322 72.1265C52.8103 72.1265 58.6951 63.1929 54.0534 55.7246C52.7063 53.5503 51.4395 52.1276 49.8702 50.1093Z" fill="url(#paint1_radial_1_1681)"/>
        <defs>
            <radialGradient id="paint0_radial_1_1681" cx="0" cy="0" r="1" gradientUnits="userSpaceOnUse" gradientTransform="translate(43.3027 72.2687) rotate(-179.751) scale(33.3651 54.7455)">
                <stop offset="0.314" stop-color="#FF9800"/>
                <stop offset="0.662" stop-color="#FF6D00"/>
                <stop offset="0.972" stop-color="#F44336"/>
            </radialGradient>
            <radialGradient id="paint1_radial_1_1681" cx="0" cy="0" r="1" gradientUnits="userSpaceOnUse" gradientTransform="translate(45.1765 39.0668) rotate(90.5787) scale(34.9102 26.2725)">
                <stop offset="0.214" stop-color="#FFF176"/>
                <stop offset="0.328" stop-color="#FFF27D"/>
                <stop offset="0.487" stop-color="#FFF48F"/>
                <stop offset="0.672" stop-color="#FFF7AD"/>
                <stop offset="0.793" stop-color="#FFF9C4"/>
                <stop offset="0.822" stop-color="#FFF8BD" stop-opacity="0.804"/>
                <stop offset="0.863" stop-color="#FFF6AB" stop-opacity="0.529"/>
                <stop offset="0.91" stop-color="#FFF38D" stop-opacity="0.209"/>
                <stop offset="0.941" stop-color="#FFF176" stop-opacity="0"/>
            </radialGradient>
        </defs>
    </symbol>

    <symbol id="disabled-fire" viewBox="0 0 88 88" fill="none">
        <circle cx="43.7098" cy="43.7772" r="43.7098" fill="#CECCCA"/>
        <path d="M30.2733 32.7667C30.0038 35.6406 29.8148 40.7266 31.5117 42.8915C31.5117 42.8915 30.7128 37.3044 37.8739 30.2946C40.7572 27.4728 41.4237 23.6346 40.4169 20.756C39.845 19.1253 38.8003 17.7782 37.8928 16.8375C37.3634 16.2845 37.7699 15.3722 38.5404 15.4053C43.201 15.6133 50.7543 16.9084 53.9638 24.9628C55.3724 28.4985 55.4764 32.1523 54.8052 35.8675C54.3798 38.2403 52.8672 43.5154 56.3177 44.163C58.7804 44.6262 59.9715 42.6693 60.5056 41.2607C60.7278 40.6746 61.4983 40.5281 61.9142 40.996C66.0738 45.7275 66.4283 51.3004 65.568 56.098C63.9042 65.372 54.5121 72.1218 45.1815 72.1218C33.5253 72.1218 24.2466 65.4523 21.8407 53.3801C20.8717 48.5069 21.3633 38.8643 28.8789 32.0577C29.4366 31.5472 30.3489 32.001 30.2733 32.7667Z" fill="url(#paint0_radial_1_1686)"/>
        <path d="M49.4404 50.1093C45.1438 44.5789 47.0676 38.2687 48.1217 35.7541C48.2635 35.4232 47.8853 35.1112 47.5875 35.3145C45.7394 36.5718 41.9532 39.5307 40.1901 43.695C37.8031 49.3246 37.9733 52.0803 39.3866 55.4458C40.2374 57.4736 39.2495 57.9037 38.7532 57.9793C38.2711 58.0549 37.8268 57.7335 37.4723 57.3979C36.4526 56.4187 35.7259 55.1747 35.3736 53.8056C35.2979 53.5125 34.9151 53.4322 34.7402 53.6732C33.4167 55.5025 32.7313 58.4378 32.6982 60.5129C32.5942 66.9271 37.8929 72.1265 44.3024 72.1265C52.3805 72.1265 58.2653 63.1929 53.6236 55.7246C52.2765 53.5503 51.0097 52.1276 49.4404 50.1093Z" fill="#6D6D6D"/>
        <defs>
            <radialGradient id="paint0_radial_1_1686" cx="0" cy="0" r="1" gradientUnits="userSpaceOnUse" gradientTransform="translate(42.8728 72.2687) rotate(-179.751) scale(33.3651 54.7455)">
                <stop offset="0.972" stop-color="#888888"/>
            </radialGradient>
        </defs>
    </symbol>

    <symbol id="push" viewBox="0 0 36 34" fill="none">
        <path d="M35.586 9.7964C35.586 12.3631 34.627 14.8247 32.92 16.6396C31.2129 18.4545 28.8977 19.4742 26.4835 19.4742C24.0694 19.4742 21.7542 18.4545 20.0471 16.6396C18.3401 14.8247 17.3811 12.3631 17.3811 9.7964C17.3811 7.2297 18.3401 4.76813 20.0471 2.9532C21.7542 1.13827 24.0694 0.118652 26.4835 0.118652C28.8977 0.118652 31.2129 1.13827 32.92 2.9532C34.627 4.76813 35.586 7.2297 35.586 9.7964ZM26.4835 3.63783C26.2641 3.63783 26.0536 3.73053 25.8984 3.89552C25.7432 4.06051 25.6561 4.28429 25.6561 4.51763V11.556C25.6561 11.7893 25.7432 12.0131 25.8984 12.1781C26.0536 12.3431 26.2641 12.4358 26.4835 12.4358C26.703 12.4358 26.9135 12.3431 27.0687 12.1781C27.2239 12.0131 27.311 11.7893 27.311 11.556V4.51763C27.311 4.28429 27.2239 4.06051 27.0687 3.89552C26.9135 3.73053 26.703 3.63783 26.4835 3.63783ZM26.4835 16.1749C26.6194 16.1749 26.7539 16.1465 26.8794 16.0912C27.0049 16.0359 27.1189 15.9549 27.215 15.8528C27.311 15.7507 27.3872 15.6295 27.4392 15.496C27.4912 15.3626 27.5179 15.2196 27.5179 15.0752C27.5179 14.9308 27.4912 14.7877 27.4392 14.6543C27.3872 14.5209 27.311 14.3997 27.215 14.2975C27.1189 14.1954 27.0049 14.1144 26.8794 14.0591C26.7539 14.0039 26.6194 13.9754 26.4835 13.9754C26.2092 13.9754 25.9461 14.0913 25.7521 14.2975C25.5582 14.5038 25.4492 14.7835 25.4492 15.0752C25.4492 15.3668 25.5582 15.6466 25.7521 15.8528C25.9461 16.0591 26.2092 16.1749 26.4835 16.1749ZM31.4485 27.8322V19.9457C32.3567 19.4423 33.1927 18.8036 33.931 18.0489V27.8322C33.9311 29.2929 33.4055 30.6983 32.4619 31.76C31.5184 32.8218 30.2285 33.4594 28.8568 33.5421L28.5523 33.5509H6.2099C4.83603 33.551 3.5142 32.9921 2.51558 31.9889C1.51695 30.9858 0.917234 29.6143 0.839452 28.156L0.831177 27.8322V11.1161C0.831087 9.65539 1.35673 8.25002 2.30027 7.18828C3.24381 6.12654 4.53371 5.48892 5.90538 5.40622L6.2099 5.39743H16.5503C16.2188 6.24426 15.9843 7.13042 15.8519 8.03681H6.2099C5.48304 8.03684 4.78277 8.32745 4.24809 8.85094C3.7134 9.37443 3.3834 10.0925 3.32359 10.8627L3.31366 11.1161V11.871L17.3811 19.7434L19.5409 18.5328C20.2674 19.1856 21.075 19.7381 21.9472 20.1692L17.9587 22.4021C17.8065 22.4871 17.6393 22.5376 17.4678 22.5503C17.2963 22.563 17.1242 22.5377 16.9624 22.476L16.8035 22.4021L3.31366 14.8535V27.8322C3.31369 28.605 3.58702 29.3495 4.0794 29.918C4.57177 30.4865 5.24719 30.8373 5.97158 30.9009L6.2099 30.9115H28.5523C29.2794 30.9114 29.9799 30.6206 30.5146 30.0967C31.0494 29.5729 31.3792 28.8543 31.4386 28.0838L31.4485 27.8322Z" fill="#E56027"/>
    </symbol>

    <symbol id="timer" viewBox="0 0 32 42" fill="none">
        <path d="M15.6825 40.2066C23.7966 40.2066 30.3744 33.2464 30.3744 24.6606C30.3744 16.0748 23.7966 9.11462 15.6825 9.11462C7.56847 9.11462 0.990723 16.0748 0.990723 24.6606C0.990723 33.2464 7.56847 40.2066 15.6825 40.2066Z" fill="#2F88FF" stroke="black" stroke-width="2"/>
        <path d="M19.3555 1.34151H12.0096" stroke="black" stroke-width="2" stroke-linecap="round" stroke-linejoin="round"/>
        <path d="M15.6826 1.34151V9.1145" stroke="black" stroke-width="2" stroke-linecap="round" stroke-linejoin="round"/>
        <path d="M25.7831 13.0013L28.5378 10.0865" stroke="black" stroke-width="2" stroke-linecap="round" stroke-linejoin="round"/>
        <path d="M15.0948 24.6615V17.1995" stroke="white" stroke-width="2" stroke-linecap="round" stroke-linejoin="round"/>
        <path d="M15.0949 24.6617H8.04279" stroke="white" stroke-width="2" stroke-linecap="round" stroke-linejoin="round"/>
    </symbol>

    <symbol id="refresh" viewBox="0 0 34 37" fill="none">
        <path d="M17.2086 35.0255C25.9334 35.0255 33.0062 27.5414 33.0062 18.3094C33.0062 9.07732 25.9334 1.59326 17.2086 1.59326C8.48379 1.59326 1.41095 9.07732 1.41095 18.3094C1.41095 27.5414 8.48379 35.0255 17.2086 35.0255Z" fill="#76E376" stroke="black" stroke-width="2" stroke-linecap="round" stroke-linejoin="round"/>
        <path d="M24.7459 20.8171C23.7394 24.208 20.7455 26.6677 17.2087 26.6677C13.6719 26.6677 10.6781 24.208 9.67151 20.8171V25.8319" stroke="white" stroke-width="2" stroke-linecap="round" stroke-linejoin="round"/>
        <path d="M24.7459 10.7868V15.8016C23.7394 12.4107 20.7455 9.951 17.2087 9.951C13.6719 9.951 10.6781 12.4107 9.67151 15.8016" stroke="white" stroke-width="2" stroke-linecap="round" stroke-linejoin="round"/>
    </symbol>

    <symbol id="check" viewBox="0 0 43 43" fill="none" >
        <path fill-rule="evenodd" clip-rule="evenodd" d="M21.5 43C24.3234 43 27.1192 42.4439 29.7277 41.3634C32.3362 40.2829 34.7063 38.6993 36.7028 36.7028C38.6993 34.7063 40.2829 32.3362 41.3634 29.7277C42.4439 27.1192 43 24.3234 43 21.5C43 18.6766 42.4439 15.8808 41.3634 13.2723C40.2829 10.6638 38.6993 8.29366 36.7028 6.2972C34.7063 4.30074 32.3362 2.71707 29.7277 1.63659C27.1192 0.556114 24.3234 -4.20722e-08 21.5 0C15.7978 8.49687e-08 10.3292 2.26517 6.2972 6.2972C2.26517 10.3292 0 15.7978 0 21.5C0 27.2022 2.26517 32.6708 6.2972 36.7028C10.3292 40.7348 15.7978 43 21.5 43ZM20.9458 30.1956L32.8902 15.8622L29.2209 12.8044L18.9487 25.1287L13.6334 19.8111L10.2555 23.1889L17.4222 30.3556L19.2712 32.2046L20.9458 30.1956Z" fill="#1B8A40"/>
    </symbol>

    <symbol id="blackbell" viewBox="0 0 34 33" fill="none">
        <path d="M25.7261 18.5279V15.4964C25.7272 13.4474 25.0308 11.458 23.7493 9.84984C22.4678 8.24164 20.6762 7.10869 18.6643 6.63417C18.6794 6.57534 18.6914 6.51575 18.7 6.45564V2.47423C18.7 2.02755 18.5209 1.59917 18.2021 1.28333C17.8833 0.96748 17.4509 0.790039 17 0.790039C16.5491 0.790039 16.1167 0.96748 15.7979 1.28333C15.4791 1.59917 15.3 2.02755 15.3 2.47423V6.45564C15.3086 6.51575 15.3206 6.57534 15.3357 6.63417C13.3238 7.10869 11.5322 8.24164 10.2507 9.84984C8.96925 11.458 8.27276 13.4474 8.2739 15.4964V18.5279C8.2739 22.5464 5.1 23.5501 5.1 25.5594C5.1 26.5581 5.1 27.5686 6.0146 27.5686H27.9854C28.9 27.5686 28.9 26.5581 28.9 25.5594C28.9 23.5501 25.7261 22.5464 25.7261 18.5279ZM6.8 7.35837C6.34917 7.35827 5.91684 7.18077 5.5981 6.8649L3.8981 5.18071C3.58843 4.86307 3.41708 4.43764 3.42095 3.99605C3.42483 3.55447 3.60361 3.13205 3.91881 2.81979C4.234 2.50753 4.66038 2.3304 5.10612 2.32657C5.55185 2.32273 5.98128 2.49249 6.3019 2.79927L8.0019 4.48346C8.23958 4.719 8.40143 5.01906 8.46699 5.34571C8.53256 5.67236 8.49889 6.01094 8.37025 6.31864C8.24161 6.62634 8.02378 6.88935 7.74428 7.07442C7.46478 7.25948 7.13618 7.3583 6.8 7.35837ZM3.4 14.0951H1.7C1.24913 14.0951 0.81673 13.9177 0.497918 13.6018C0.179107 13.286 0 12.8576 0 12.4109C0 11.9643 0.179107 11.5359 0.497918 11.22C0.81673 10.9042 1.24913 10.7267 1.7 10.7267H3.4C3.85087 10.7267 4.28327 10.9042 4.60208 11.22C4.92089 11.5359 5.1 11.9643 5.1 12.4109C5.1 12.8576 4.92089 13.286 4.60208 13.6018C4.28327 13.9177 3.85087 14.0951 3.4 14.0951ZM27.2 7.35837C26.8638 7.3583 26.5352 7.25948 26.2557 7.07442C25.9762 6.88935 25.7584 6.62634 25.6297 6.31864C25.5011 6.01094 25.4674 5.67236 25.533 5.34571C25.5986 5.01906 25.7604 4.719 25.9981 4.48346L27.6981 2.79927C27.8549 2.63842 28.0425 2.51011 28.2499 2.42185C28.4573 2.33358 28.6804 2.28712 28.9061 2.28518C29.1318 2.28323 29.3557 2.32584 29.5646 2.41053C29.7735 2.49521 29.9634 2.62027 30.123 2.7784C30.2826 2.93653 30.4088 3.12457 30.4943 3.33155C30.5798 3.53853 30.6228 3.76031 30.6208 3.98393C30.6189 4.20756 30.572 4.42856 30.4829 4.63403C30.3938 4.83951 30.2643 5.02535 30.1019 5.18071L28.4019 6.8649C28.0832 7.18077 27.6508 7.35827 27.2 7.35837ZM32.3 14.0951H30.6C30.1491 14.0951 29.7167 13.9177 29.3979 13.6018C29.0791 13.286 28.9 12.8576 28.9 12.4109C28.9 11.9643 29.0791 11.5359 29.3979 11.22C29.7167 10.9042 30.1491 10.7267 30.6 10.7267H32.3C32.7509 10.7267 33.1833 10.9042 33.5021 11.22C33.8209 11.5359 34 11.9643 34 12.4109C34 12.8576 33.8209 13.286 33.5021 13.6018C33.1833 13.9177 32.7509 14.0951 32.3 14.0951ZM11.5991 29.2528C12.0501 30.3021 12.8025 31.1969 13.7628 31.8258C14.7231 32.4547 15.8488 32.79 17 32.79C18.1512 32.79 19.2769 32.4547 20.2372 31.8258C21.1975 31.1969 21.9499 30.3021 22.4009 29.2528H11.5991Z" fill="black"/>
    </symbol>
</svg>